<mxfile host="app.diagrams.net" agent="Mozilla/5.0 (Windows NT 10.0; Win64; x64; rv:138.0) Gecko/20100101 Firefox/138.0" version="27.0.3" pages="2">
  <diagram name="Page-1" id="cBsXEfL88H1xAuI9glsx">
    <mxGraphModel dx="1572" dy="942" grid="1" gridSize="10" guides="1" tooltips="1" connect="1" arrows="1" fold="1" page="1" pageScale="1" pageWidth="3300" pageHeight="4681" math="0" shadow="0">
      <root>
        <mxCell id="0" />
        <mxCell id="1" parent="0" />
        <mxCell id="UTs0d0hr7OHqI5mropry-31" value="2a Prediction Making" style="text;html=1;align=left;verticalAlign=top;whiteSpace=wrap;rounded=0;dashed=1;fillColor=#f5f5f5;fontColor=#333333;strokeColor=#666666;strokeWidth=2;" name="text" vertex="1" parent="1">
          <mxGeometry x="1010" y="360" width="360" height="260" as="geometry" />
        </mxCell>
        <mxCell id="UTs0d0hr7OHqI5mropry-30" value="2a Finding Weighted Fuzzy Rules" style="text;html=1;align=right;verticalAlign=top;whiteSpace=wrap;rounded=0;dashed=1;fillColor=#f5f5f5;fontColor=#333333;strokeColor=#666666;strokeWidth=2;" name="text" vertex="1" parent="1">
          <mxGeometry x="700" y="360" width="300" height="260" as="geometry" />
        </mxCell>
        <mxCell id="UTs0d0hr7OHqI5mropry-26" value="2a Mining and Selection of Suitable Attributes" style="text;html=1;align=left;verticalAlign=bottom;whiteSpace=wrap;rounded=0;dashed=1;fillColor=#f5f5f5;fontColor=#333333;strokeColor=#666666;strokeWidth=2;" name="text" vertex="1" parent="1">
          <mxGeometry x="505" y="360" width="185" height="260" as="geometry" />
        </mxCell>
        <mxCell id="UTs0d0hr7OHqI5mropry-24" value="1d Data Preprocessing" style="text;html=1;align=left;verticalAlign=top;whiteSpace=wrap;rounded=0;dashed=1;fillColor=#f5f5f5;fontColor=#333333;strokeColor=#666666;strokeWidth=2;" name="text" vertex="1" parent="1">
          <mxGeometry x="390" y="200" width="390" height="150" as="geometry" />
        </mxCell>
        <mxCell id="UTs0d0hr7OHqI5mropry-3" style="edgeStyle=orthogonalEdgeStyle;rounded=0;orthogonalLoop=1;jettySize=auto;html=1;exitX=1;exitY=0.5;exitDx=0;exitDy=0;entryX=0;entryY=0.5;entryDx=0;entryDy=0;" edge="1" parent="1" source="UTs0d0hr7OHqI5mropry-1" target="UTs0d0hr7OHqI5mropry-2">
          <mxGeometry relative="1" as="geometry" />
        </mxCell>
        <mxCell id="UTs0d0hr7OHqI5mropry-1" value="data&#xa;Raw UCI Data" style="rectangle;fillColor=#fff2cc;strokeColor=#d6b656;" name="data" vertex="1" parent="1">
          <mxGeometry x="340" y="230" width="100" height="50" as="geometry" />
        </mxCell>
        <mxCell id="UTs0d0hr7OHqI5mropry-5" style="edgeStyle=orthogonalEdgeStyle;rounded=0;orthogonalLoop=1;jettySize=auto;html=1;exitX=1;exitY=0.5;exitDx=0;exitDy=0;entryX=0.5;entryY=0;entryDx=0;entryDy=0;" edge="1" parent="1" source="UTs0d0hr7OHqI5mropry-2" target="UTs0d0hr7OHqI5mropry-4">
          <mxGeometry relative="1" as="geometry" />
        </mxCell>
        <mxCell id="UTs0d0hr7OHqI5mropry-2" value="transform" style="rounded=1;whiteSpace=wrap;html=1;arcSize=50;fillColor=#f8cecc;strokeColor=#b85450;" name="transform" vertex="1" parent="1">
          <mxGeometry x="520" y="230" width="100" height="50" as="geometry" />
        </mxCell>
        <mxCell id="UTs0d0hr7OHqI5mropry-25" style="edgeStyle=orthogonalEdgeStyle;rounded=0;orthogonalLoop=1;jettySize=auto;html=1;exitX=0;exitY=0.75;exitDx=0;exitDy=0;entryX=0.5;entryY=0;entryDx=0;entryDy=0;" edge="1" parent="1" source="UTs0d0hr7OHqI5mropry-4" target="UTs0d0hr7OHqI5mropry-6">
          <mxGeometry relative="1" as="geometry" />
        </mxCell>
        <mxCell id="UTs0d0hr7OHqI5mropry-4" value="data&#xa;Cleaned and&#xa;Normalized Data" style="rectangle;fillColor=#fff2cc;strokeColor=#d6b656;" name="data" vertex="1" parent="1">
          <mxGeometry x="650" y="330" width="100" height="50" as="geometry" />
        </mxCell>
        <mxCell id="UTs0d0hr7OHqI5mropry-6" value="infer:deduce" style="rounded=1;whiteSpace=wrap;html=1;arcSize=50;fillColor=#bac8d3;strokeColor=#23445d;" name="infer:deduce" vertex="1" parent="1">
          <mxGeometry x="520" y="430" width="100" height="50" as="geometry" />
        </mxCell>
        <mxCell id="UTs0d0hr7OHqI5mropry-17" style="edgeStyle=orthogonalEdgeStyle;rounded=0;orthogonalLoop=1;jettySize=auto;html=1;exitX=1;exitY=0.5;exitDx=0;exitDy=0;entryX=0;entryY=0.5;entryDx=0;entryDy=0;" edge="1" parent="1" source="UTs0d0hr7OHqI5mropry-8" target="UTs0d0hr7OHqI5mropry-16">
          <mxGeometry relative="1" as="geometry" />
        </mxCell>
        <mxCell id="UTs0d0hr7OHqI5mropry-8" value="infer:deduce" style="rounded=1;whiteSpace=wrap;html=1;arcSize=50;fillColor=#bac8d3;strokeColor=#23445d;" name="infer:deduce" vertex="1" parent="1">
          <mxGeometry x="780" y="430" width="100" height="50" as="geometry" />
        </mxCell>
        <mxCell id="UTs0d0hr7OHqI5mropry-10" value="&lt;div&gt;error&lt;/div&gt;&lt;div&gt;--&lt;/div&gt;&lt;div&gt;&amp;nbsp; |&lt;/div&gt;&lt;div&gt;&amp;nbsp; v&lt;/div&gt;" style="text;html=1;align=center;verticalAlign=middle;whiteSpace=wrap;rounded=0;dashed=1;fillColor=#f5f5f5;fontColor=#333333;strokeColor=#666666;strokeWidth=2;" name="text" vertex="1" parent="1">
          <mxGeometry x="750" y="370" width="50" height="60" as="geometry" />
        </mxCell>
        <mxCell id="UTs0d0hr7OHqI5mropry-28" style="edgeStyle=orthogonalEdgeStyle;rounded=0;orthogonalLoop=1;jettySize=auto;html=1;exitX=1;exitY=0.5;exitDx=0;exitDy=0;entryX=0.25;entryY=1;entryDx=0;entryDy=0;" edge="1" parent="1" source="UTs0d0hr7OHqI5mropry-11" target="UTs0d0hr7OHqI5mropry-8">
          <mxGeometry relative="1" as="geometry" />
        </mxCell>
        <mxCell id="UTs0d0hr7OHqI5mropry-11" value="data&#xa;Selected Attributes" style="rectangle;fillColor=#fff2cc;strokeColor=#d6b656;" name="data" vertex="1" parent="1">
          <mxGeometry x="650" y="530" width="100" height="50" as="geometry" />
        </mxCell>
        <mxCell id="UTs0d0hr7OHqI5mropry-14" value="&lt;div&gt;error&lt;/div&gt;&lt;div&gt;|&lt;/div&gt;&lt;div&gt;&amp;nbsp;&amp;nbsp;&amp;nbsp; --&amp;gt; &lt;br&gt;&lt;/div&gt;" style="text;html=1;align=center;verticalAlign=middle;whiteSpace=wrap;rounded=0;dashed=1;fillColor=#f5f5f5;fontColor=#333333;strokeColor=#666666;strokeWidth=2;" name="text" vertex="1" parent="1">
          <mxGeometry x="570" y="480" width="80" height="100" as="geometry" />
        </mxCell>
        <mxCell id="UTs0d0hr7OHqI5mropry-21" style="edgeStyle=orthogonalEdgeStyle;rounded=0;orthogonalLoop=1;jettySize=auto;html=1;exitX=1;exitY=0.5;exitDx=0;exitDy=0;entryX=0;entryY=0.5;entryDx=0;entryDy=0;" edge="1" parent="1" source="UTs0d0hr7OHqI5mropry-16" target="UTs0d0hr7OHqI5mropry-19">
          <mxGeometry relative="1" as="geometry" />
        </mxCell>
        <mxCell id="UTs0d0hr7OHqI5mropry-16" value="symbol&#xa;Weighted Fuzzy&#xa;Rules" style="rectangle;fillColor=#dae8fc;strokeColor=#6c8ebf;" name="symbol" vertex="1" parent="1">
          <mxGeometry x="960" y="430" width="100" height="50" as="geometry" />
        </mxCell>
        <mxCell id="UTs0d0hr7OHqI5mropry-20" style="edgeStyle=orthogonalEdgeStyle;rounded=0;orthogonalLoop=1;jettySize=auto;html=1;entryX=0.5;entryY=1;entryDx=0;entryDy=0;" edge="1" parent="1" source="UTs0d0hr7OHqI5mropry-18" target="UTs0d0hr7OHqI5mropry-19">
          <mxGeometry relative="1" as="geometry" />
        </mxCell>
        <mxCell id="UTs0d0hr7OHqI5mropry-18" value="data&#xa;Patient Data" style="rectangle;fillColor=#fff2cc;strokeColor=#d6b656;" name="data" vertex="1" parent="1">
          <mxGeometry x="1140" y="560" width="100" height="50" as="geometry" />
        </mxCell>
        <mxCell id="UTs0d0hr7OHqI5mropry-23" style="edgeStyle=orthogonalEdgeStyle;rounded=0;orthogonalLoop=1;jettySize=auto;html=1;exitX=1;exitY=0.5;exitDx=0;exitDy=0;entryX=0;entryY=0.5;entryDx=0;entryDy=0;" edge="1" parent="1" source="UTs0d0hr7OHqI5mropry-19" target="UTs0d0hr7OHqI5mropry-22">
          <mxGeometry relative="1" as="geometry" />
        </mxCell>
        <mxCell id="UTs0d0hr7OHqI5mropry-19" value="infer:predict" style="rounded=1;whiteSpace=wrap;html=1;arcSize=50;fillColor=#bac8d3;strokeColor=#23445d;" name="infer:deduce" vertex="1" parent="1">
          <mxGeometry x="1140" y="430" width="100" height="50" as="geometry" />
        </mxCell>
        <mxCell id="UTs0d0hr7OHqI5mropry-22" value="symbol&#xa;Risk Levels" style="rectangle;fillColor=#dae8fc;strokeColor=#6c8ebf;" name="symbol" vertex="1" parent="1">
          <mxGeometry x="1320" y="430" width="100" height="50" as="geometry" />
        </mxCell>
      </root>
    </mxGraphModel>
  </diagram>
  <diagram id="f5w5jk4OhsZR7NTHUfIy" name="Page-2">
    <mxGraphModel dx="925" dy="554" grid="1" gridSize="10" guides="1" tooltips="1" connect="1" arrows="1" fold="1" page="1" pageScale="1" pageWidth="3300" pageHeight="4681" math="0" shadow="0">
      <root>
        <mxCell id="0" />
        <mxCell id="1" parent="0" />
        <mxCell id="XOWTA5rA_HXzsHa7nXSw-1" value="2a Prediction Making" style="text;html=1;align=left;verticalAlign=top;whiteSpace=wrap;rounded=0;dashed=1;fillColor=#f5f5f5;fontColor=#333333;strokeColor=#666666;strokeWidth=2;" name="text" vertex="1" parent="1">
          <mxGeometry x="1010" y="360" width="360" height="260" as="geometry" />
        </mxCell>
        <mxCell id="XOWTA5rA_HXzsHa7nXSw-2" value="2a Finding Weighted Fuzzy Rules" style="text;html=1;align=left;verticalAlign=bottom;whiteSpace=wrap;rounded=0;dashed=1;fillColor=#f5f5f5;fontColor=#333333;strokeColor=#666666;strokeWidth=2;" name="text" vertex="1" parent="1">
          <mxGeometry x="700" y="360" width="300" height="260" as="geometry" />
        </mxCell>
        <mxCell id="XOWTA5rA_HXzsHa7nXSw-3" value="2a Mining and Selection of Suitable Attributes" style="text;html=1;align=left;verticalAlign=bottom;whiteSpace=wrap;rounded=0;dashed=1;fillColor=#f5f5f5;fontColor=#333333;strokeColor=#666666;strokeWidth=2;" name="text" vertex="1" parent="1">
          <mxGeometry x="505" y="360" width="185" height="260" as="geometry" />
        </mxCell>
        <mxCell id="XOWTA5rA_HXzsHa7nXSw-4" value="1d Data Preprocessing" style="text;html=1;align=left;verticalAlign=top;whiteSpace=wrap;rounded=0;dashed=1;fillColor=#f5f5f5;fontColor=#333333;strokeColor=#666666;strokeWidth=2;" name="text" vertex="1" parent="1">
          <mxGeometry x="390" y="200" width="390" height="150" as="geometry" />
        </mxCell>
        <mxCell id="XOWTA5rA_HXzsHa7nXSw-5" style="edgeStyle=orthogonalEdgeStyle;rounded=0;orthogonalLoop=1;jettySize=auto;html=1;exitX=1;exitY=0.5;exitDx=0;exitDy=0;entryX=0;entryY=0.5;entryDx=0;entryDy=0;" edge="1" parent="1" source="XOWTA5rA_HXzsHa7nXSw-6" target="XOWTA5rA_HXzsHa7nXSw-8">
          <mxGeometry relative="1" as="geometry" />
        </mxCell>
        <mxCell id="XOWTA5rA_HXzsHa7nXSw-6" value="data&#xa;Raw UCI Data" style="rectangle;fillColor=#fff2cc;strokeColor=#d6b656;" name="data" vertex="1" parent="1">
          <mxGeometry x="340" y="230" width="100" height="50" as="geometry" />
        </mxCell>
        <mxCell id="XOWTA5rA_HXzsHa7nXSw-7" style="edgeStyle=orthogonalEdgeStyle;rounded=0;orthogonalLoop=1;jettySize=auto;html=1;exitX=1;exitY=0.5;exitDx=0;exitDy=0;entryX=0.5;entryY=0;entryDx=0;entryDy=0;" edge="1" parent="1" source="XOWTA5rA_HXzsHa7nXSw-8" target="XOWTA5rA_HXzsHa7nXSw-10">
          <mxGeometry relative="1" as="geometry" />
        </mxCell>
        <mxCell id="XOWTA5rA_HXzsHa7nXSw-8" value="transform" style="rounded=1;whiteSpace=wrap;html=1;arcSize=50;fillColor=#f8cecc;strokeColor=#b85450;" name="transform" vertex="1" parent="1">
          <mxGeometry x="520" y="230" width="100" height="50" as="geometry" />
        </mxCell>
        <mxCell id="XOWTA5rA_HXzsHa7nXSw-27" style="edgeStyle=orthogonalEdgeStyle;rounded=0;orthogonalLoop=1;jettySize=auto;html=1;exitX=0;exitY=0.75;exitDx=0;exitDy=0;entryX=0.5;entryY=0;entryDx=0;entryDy=0;" edge="1" parent="1" source="XOWTA5rA_HXzsHa7nXSw-10" target="XOWTA5rA_HXzsHa7nXSw-25">
          <mxGeometry relative="1" as="geometry" />
        </mxCell>
        <mxCell id="XOWTA5rA_HXzsHa7nXSw-43" style="edgeStyle=orthogonalEdgeStyle;rounded=0;orthogonalLoop=1;jettySize=auto;html=1;exitX=1;exitY=0.75;exitDx=0;exitDy=0;entryX=0.5;entryY=0;entryDx=0;entryDy=0;" edge="1" parent="1" source="XOWTA5rA_HXzsHa7nXSw-10" target="XOWTA5rA_HXzsHa7nXSw-13">
          <mxGeometry relative="1" as="geometry" />
        </mxCell>
        <mxCell id="XOWTA5rA_HXzsHa7nXSw-10" value="data&#xa;Cleaned and&#xa;Normalized Data" style="rectangle;fillColor=#fff2cc;strokeColor=#d6b656;" name="data" vertex="1" parent="1">
          <mxGeometry x="650" y="330" width="100" height="50" as="geometry" />
        </mxCell>
        <mxCell id="XOWTA5rA_HXzsHa7nXSw-39" style="edgeStyle=orthogonalEdgeStyle;rounded=0;orthogonalLoop=1;jettySize=auto;html=1;exitX=1;exitY=0.5;exitDx=0;exitDy=0;entryX=0;entryY=0.5;entryDx=0;entryDy=0;" edge="1" parent="1" source="XOWTA5rA_HXzsHa7nXSw-13" target="XOWTA5rA_HXzsHa7nXSw-38">
          <mxGeometry relative="1" as="geometry" />
        </mxCell>
        <mxCell id="XOWTA5rA_HXzsHa7nXSw-13" value="infer:deduce" style="rounded=1;whiteSpace=wrap;html=1;arcSize=50;fillColor=#bac8d3;strokeColor=#23445d;" name="infer:deduce" vertex="1" parent="1">
          <mxGeometry x="780" y="430" width="100" height="50" as="geometry" />
        </mxCell>
        <mxCell id="XOWTA5rA_HXzsHa7nXSw-30" style="edgeStyle=orthogonalEdgeStyle;rounded=0;orthogonalLoop=1;jettySize=auto;html=1;exitX=0.75;exitY=0;exitDx=0;exitDy=0;entryX=0.75;entryY=1;entryDx=0;entryDy=0;" edge="1" parent="1" source="XOWTA5rA_HXzsHa7nXSw-16" target="XOWTA5rA_HXzsHa7nXSw-10">
          <mxGeometry relative="1" as="geometry" />
        </mxCell>
        <mxCell id="XOWTA5rA_HXzsHa7nXSw-16" value="data&#xa;Selected Attributes" style="rectangle;fillColor=#fff2cc;strokeColor=#d6b656;" name="data" vertex="1" parent="1">
          <mxGeometry x="650" y="530" width="100" height="50" as="geometry" />
        </mxCell>
        <mxCell id="XOWTA5rA_HXzsHa7nXSw-17" value="replaced infer:deduce with transform" style="text;html=1;align=center;verticalAlign=middle;whiteSpace=wrap;rounded=0;dashed=1;fillColor=#f5f5f5;fontColor=#333333;strokeColor=#666666;strokeWidth=2;" name="text" vertex="1" parent="1">
          <mxGeometry x="400" y="425" width="80" height="60" as="geometry" />
        </mxCell>
        <mxCell id="XOWTA5rA_HXzsHa7nXSw-20" style="edgeStyle=orthogonalEdgeStyle;rounded=0;orthogonalLoop=1;jettySize=auto;html=1;entryX=0.5;entryY=1;entryDx=0;entryDy=0;" edge="1" parent="1" source="XOWTA5rA_HXzsHa7nXSw-21" target="XOWTA5rA_HXzsHa7nXSw-23">
          <mxGeometry relative="1" as="geometry" />
        </mxCell>
        <mxCell id="XOWTA5rA_HXzsHa7nXSw-21" value="data&#xa;Patient Data" style="rectangle;fillColor=#fff2cc;strokeColor=#d6b656;" name="data" vertex="1" parent="1">
          <mxGeometry x="1140" y="530" width="100" height="50" as="geometry" />
        </mxCell>
        <mxCell id="XOWTA5rA_HXzsHa7nXSw-22" style="edgeStyle=orthogonalEdgeStyle;rounded=0;orthogonalLoop=1;jettySize=auto;html=1;exitX=1;exitY=0.5;exitDx=0;exitDy=0;entryX=0;entryY=0.5;entryDx=0;entryDy=0;" edge="1" parent="1" source="XOWTA5rA_HXzsHa7nXSw-23" target="XOWTA5rA_HXzsHa7nXSw-24">
          <mxGeometry relative="1" as="geometry" />
        </mxCell>
        <mxCell id="XOWTA5rA_HXzsHa7nXSw-23" value="infer:predict" style="rounded=1;whiteSpace=wrap;html=1;arcSize=50;fillColor=#bac8d3;strokeColor=#23445d;" name="infer:deduce" vertex="1" parent="1">
          <mxGeometry x="1140" y="430" width="100" height="50" as="geometry" />
        </mxCell>
        <mxCell id="XOWTA5rA_HXzsHa7nXSw-24" value="symbol&#xa;Risk Levels" style="rectangle;fillColor=#dae8fc;strokeColor=#6c8ebf;" name="symbol" vertex="1" parent="1">
          <mxGeometry x="1320" y="430" width="100" height="50" as="geometry" />
        </mxCell>
        <mxCell id="XOWTA5rA_HXzsHa7nXSw-28" style="edgeStyle=orthogonalEdgeStyle;rounded=0;orthogonalLoop=1;jettySize=auto;html=1;exitX=0.5;exitY=1;exitDx=0;exitDy=0;entryX=0;entryY=0.5;entryDx=0;entryDy=0;" edge="1" parent="1" source="XOWTA5rA_HXzsHa7nXSw-25" target="XOWTA5rA_HXzsHa7nXSw-16">
          <mxGeometry relative="1" as="geometry" />
        </mxCell>
        <mxCell id="XOWTA5rA_HXzsHa7nXSw-25" value="transform" style="rounded=1;whiteSpace=wrap;html=1;arcSize=50;fillColor=#f8cecc;strokeColor=#b85450;" name="transform" vertex="1" parent="1">
          <mxGeometry x="520" y="430" width="100" height="50" as="geometry" />
        </mxCell>
        <mxCell id="XOWTA5rA_HXzsHa7nXSw-37" style="edgeStyle=orthogonalEdgeStyle;rounded=0;orthogonalLoop=1;jettySize=auto;html=1;entryX=0.5;entryY=1;entryDx=0;entryDy=0;" edge="1" parent="1" source="XOWTA5rA_HXzsHa7nXSw-36" target="XOWTA5rA_HXzsHa7nXSw-13">
          <mxGeometry relative="1" as="geometry" />
        </mxCell>
        <mxCell id="XOWTA5rA_HXzsHa7nXSw-36" value="model" style="shape=hexagon;perimeter=hexagonPerimeter2;fillColor=#b0e3e6;strokeColor=#0e8088;" name="model" vertex="1" parent="1">
          <mxGeometry x="770" y="530" width="120" height="50" as="geometry" />
        </mxCell>
        <mxCell id="XOWTA5rA_HXzsHa7nXSw-40" style="edgeStyle=orthogonalEdgeStyle;rounded=0;orthogonalLoop=1;jettySize=auto;html=1;exitX=1;exitY=0.5;exitDx=0;exitDy=0;entryX=0;entryY=0.5;entryDx=0;entryDy=0;" edge="1" parent="1" source="XOWTA5rA_HXzsHa7nXSw-38" target="XOWTA5rA_HXzsHa7nXSw-23">
          <mxGeometry relative="1" as="geometry" />
        </mxCell>
        <mxCell id="XOWTA5rA_HXzsHa7nXSw-38" value="model&#xa;Weighted Fuzzy&#xa;Rules" style="shape=hexagon;perimeter=hexagonPerimeter2;fillColor=#b0e3e6;strokeColor=#0e8088;" name="model" vertex="1" parent="1">
          <mxGeometry x="950" y="430" width="120" height="50" as="geometry" />
        </mxCell>
        <mxCell id="XOWTA5rA_HXzsHa7nXSw-41" value="merged two data inputs" style="text;html=1;align=center;verticalAlign=middle;whiteSpace=wrap;rounded=0;dashed=1;fillColor=#f5f5f5;fontColor=#333333;strokeColor=#666666;strokeWidth=2;" name="text" vertex="1" parent="1">
          <mxGeometry x="760" y="300" width="80" height="40" as="geometry" />
        </mxCell>
        <mxCell id="XOWTA5rA_HXzsHa7nXSw-42" value="replaced symbol with model" style="text;html=1;align=center;verticalAlign=middle;whiteSpace=wrap;rounded=0;dashed=1;fillColor=#f5f5f5;fontColor=#333333;strokeColor=#666666;strokeWidth=2;" name="text" vertex="1" parent="1">
          <mxGeometry x="970" y="500" width="70" height="50" as="geometry" />
        </mxCell>
      </root>
    </mxGraphModel>
  </diagram>
</mxfile>
